Coordinates
version=1
nRows=27
nColumns=12
inDegrees=yes

Units are S.I. units (second, meters, Newtons, ...)
Angles are in degrees

endheader
time	SC_y	SC_z	SC_x	AC_y	AC_z	AC_x	GH_y	GH_z	GH_yy	EL_x	PS_y
       0.0              -48.13          26.18          39.86          55.98         -8.157          6.081         -124.4          82.26          85.58          129.2          77.08
    0.0159              -48.13          26.18          39.85          55.98         -8.156          6.079         -124.4          82.25          85.59          129.2          77.08
    0.0318              -48.13          26.18          39.85          55.98         -8.156          6.077         -124.4          82.23           85.6          129.2          77.08
    0.0477              -48.14          26.18          39.84          55.98         -8.156          6.075         -124.4          82.22          85.62          129.2          77.08
    0.0636              -48.14          26.19          39.84          55.97         -8.155          6.073         -124.3           82.2          85.63          129.2          77.08
    0.0795              -48.14          26.19          39.83          55.97         -8.155          6.071         -124.3          82.19          85.65          129.2          77.08
    0.0954              -48.14          26.19          39.83          55.97         -8.154          6.069         -124.3          82.17          85.66          129.2          77.08
    0.1113              -48.14          26.19          39.82          55.97         -8.154          6.066         -124.3          82.15          85.68          129.2          77.08
    0.1272              -48.15           26.2          39.82          55.96         -8.153          6.063         -124.3          82.13           85.7          129.2          77.08
    0.1431              -48.15           26.2          39.81          55.96         -8.153           6.06         -124.3          82.11          85.72          129.2          77.08
     0.159              -48.15           26.2           39.8          55.96         -8.152          6.057         -124.2          82.09          85.74          129.2          77.08
    0.1749              -48.15          26.21           39.8          55.95         -8.151          6.054         -124.2          82.07          85.76          129.2          77.08
    0.1908              -48.16          26.21          39.79          55.95          -8.15           6.05         -124.2          82.04          85.79          129.1          77.08
    0.2067              -48.16          26.22          39.78          55.95          -8.15          6.046         -124.2          82.01          85.81          129.1          77.08
    0.2226              -48.16          26.22          39.77          55.94         -8.149          6.042         -124.1          81.98          85.84          129.1          77.08
    0.2385              -48.17          26.23          39.76          55.94         -8.148          6.037         -124.1          81.95          85.87          129.1          77.08
    0.2544              -48.17          26.23          39.75          55.93         -8.147          6.032         -124.1          81.91          85.91          129.1          77.08
    0.2703              -48.18          26.24          39.73          55.93         -8.146          6.026         -124.1          81.87          85.94          129.1          77.08
    0.2862              -48.18          26.24          39.72          55.92         -8.145           6.02         -124.0          81.83          85.98          129.1          77.08
    0.3021              -48.19          26.25          39.71          55.92         -8.143          6.014         -124.0          81.78          86.03          129.1          77.08
     0.318              -48.19          26.26          39.69          55.91         -8.142          6.006         -123.9          81.73          86.08          129.0          77.07
    0.3339               -48.2          26.27          39.67           55.9          -8.14          5.998         -123.9          81.68          86.13          129.0          77.07
    0.3498              -48.21          26.28          39.65          55.89         -8.138           5.99         -123.8          81.61          86.19          129.0          77.07
    0.3657              -48.22          26.29          39.63          55.88         -8.137           5.98         -123.8          81.54          86.25          129.0          77.07
    0.3816              -48.23           26.3          39.61          55.87         -8.134          5.969         -123.7          81.47          86.33          128.9          77.07
    0.3975              -48.24          26.31          39.58          55.86         -8.132          5.957         -123.6          81.38          86.41          128.9          77.07
    0.4134              -48.25          26.33          39.55          55.85         -8.129          5.943         -123.5          81.29           86.5          128.9          77.07
